HIERARCHY
ROOT Hips
{
	OFFSET 0.0000 0.0000 0.0000
	CHANNELS 6 Xposition Yposition Zposition Zrotation Xrotation Yrotation
	JOINT Spine
	{
		OFFSET 0.0000 10.0000 0.0000
		CHANNELS 3 Zrotation Xrotation Yrotation
		JOINT Spine1
		{
			OFFSET 0.0000 14.0000 0.0000
			CHANNELS 3 Zrotation Xrotation Yrotation
			JOINT Neck
			{
				OFFSET 0.0000 17.0000 0.0000
				CHANNELS 3 Zrotation Xrotation Yrotation
				JOINT Head
				{
					OFFSET 0.0000 10.0000 0.0000
					CHANNELS 3 Zrotation Xrotation Yrotation
					End Site
					{
						OFFSET 0.0000 18.0000 0.0000
					}
				}
			}
			JOINT LeftShoulder
			{
				OFFSET 4.0000 13.0000 0.0000
				CHANNELS 3 Zrotation Xrotation Yrotation
				JOINT LeftArm
				{
					OFFSET 13.0000 0.0000 0.0000
					CHANNELS 3 Zrotation Xrotation Yrotation
					JOINT LeftForeArm
					{
						OFFSET 0.0000 -28.0000 0.0000
						CHANNELS 3 Zrotation Xrotation Yrotation
						JOINT LeftHand
						{
							OFFSET 0.0000 -24.0000 0.0000
							CHANNELS 3 Zrotation Xrotation Yrotation
							End Site
							{
								OFFSET 0.0000 -17.0000 0.0000
							}
						}
					}
				}
			}
			JOINT RightShoulder
			{
				OFFSET -4.0000 13.0000 0.0000
				CHANNELS 3 Zrotation Xrotation Yrotation
				JOINT RightArm
				{
					OFFSET -13.0000 0.0000 0.0000
					CHANNELS 3 Zrotation Xrotation Yrotation
					JOINT RightForeArm
					{
						OFFSET 0.0000 -28.0000 0.0000
						CHANNELS 3 Zrotation Xrotation Yrotation
						JOINT RightHand
						{
							OFFSET 0.0000 -24.0000 0.0000
							CHANNELS 3 Zrotation Xrotation Yrotation
							End Site
							{
								OFFSET 0.0000 -17.0000 0.0000
							}
						}
					}
				}
			}
		}
	}
	JOINT LeftUpLeg
	{
		OFFSET 9.0000 -4.0000 0.0000
		CHANNELS 3 Zrotation Xrotation Yrotation
		JOINT LeftLeg
		{
			OFFSET 0.0000 -42.0000 0.0000
			CHANNELS 3 Zrotation Xrotation Yrotation
			JOINT LeftFoot
			{
				OFFSET 0.0000 -40.0000 0.0000
				CHANNELS 3 Zrotation Xrotation Yrotation
				JOINT LeftToeBase
				{
					OFFSET 0.0000 -6.0000 13.0000
					CHANNELS 3 Zrotation Xrotation Yrotation
					End Site
					{
						OFFSET 0.0000 -2.0000 6.0000
					}
				}
			}
		}
	}
	JOINT RightUpLeg
	{
		OFFSET -9.0000 -4.0000 0.0000
		CHANNELS 3 Zrotation Xrotation Yrotation
		JOINT RightLeg
		{
			OFFSET 0.0000 -42.0000 0.0000
			CHANNELS 3 Zrotation Xrotation Yrotation
			JOINT RightFoot
			{
				OFFSET 0.0000 -40.0000 0.0000
				CHANNELS 3 Zrotation Xrotation Yrotation
				JOINT RightToeBase
				{
					OFFSET 0.0000 -6.0000 13.0000
					CHANNELS 3 Zrotation Xrotation Yrotation
					End Site
					{
						OFFSET 0.0000 -2.0000 6.0000
					}
				}
			}
		}
	}
}
MOTION
Frames: 11
Frame Time: 0.0333333
-1.5000 88.0000 0.0000 -1.5688 7.9087 4.1784 0.0314 1.7997 -1.0005 0.0471 1.4993 -1.8006 -0.0000 -3.0510 -0.0000 -0.0000 -3.7290 -0.0000 3.0000 0.0000 -0.0000 5.3191 -19.9207 1.8169 -0.0000 -45.0000 -0.0000 -0.0000 -8.0000 -0.0000 -3.0000 0.0000 -0.0000 -5.3191 19.9207 1.8169 -0.0000 -45.0000 -0.0000 -0.0000 -8.0000 -0.0000 4.1809 -12.9013 -1.5600 -0.0000 60.9327 0.0000 -2.5908 -32.2229 -4.5392 -0.0000 -9.9332 -0.0000 -1.4614 -44.1251 -2.9004 0.0000 11.4674 0.0000 0.3556 14.0892 -2.1862 -0.0000 4.0391 -0.0000
-1.6160 87.4200 9.0175 -2.2119 7.8662 5.5050 0.0420 1.8344 -1.3132 0.0630 1.5278 -2.3633 -0.0000 -3.0786 -0.0000 -0.0000 -3.7627 -0.0000 3.0000 0.0000 -0.0000 5.5911 -26.1418 2.4697 -0.0000 -45.0969 -0.0000 -0.0000 -8.0000 -0.0000 -3.0000 0.0000 -0.0000 -5.5911 26.1418 2.4697 -0.0000 -45.0969 -0.0000 -0.0000 -8.0000 -0.0000 4.5832 -21.5335 -2.2460 -0.0000 71.0154 0.0000 -3.4674 -40.0820 -5.8240 -0.0000 -0.7113 -0.0000 -1.0543 -39.7748 -3.5009 0.0000 14.4004 0.0000 0.1246 6.1403 -2.7147 -0.0000 3.4897 -0.0000
-1.7480 86.7600 18.0526 -2.8491 7.8157 6.3353 0.0489 1.8671 -1.5008 0.0733 1.5547 -2.7010 -0.0000 -3.1049 -0.0000 -0.0000 -3.7948 -0.0000 3.0000 0.0000 -0.0000 5.8081 -29.8725 2.9003 -0.0000 -45.1880 -0.0000 -0.0000 -8.0000 -0.0000 -3.0000 0.0000 -0.0000 -5.8081 29.8725 2.9003 -0.0000 -45.1880 -0.0000 -0.0000 -8.0000 -0.0000 4.4737 -32.2680 -2.9006 -0.0000 80.1877 0.0000 -4.0267 -43.6529 -6.4948 -0.0000 5.7246 -0.0000 -0.7646 -43.4040 -4.1528 -0.0000 34.5227 -0.0000 -0.3114 -11.0962 -3.0620 -0.0000 3.0000 -0.0000
-1.8720 86.1400 27.0789 -3.3185 7.8107 6.1669 0.0478 1.8981 -1.4418 0.0716 1.5806 -2.5947 -0.0000 -3.1301 -0.0000 -0.0000 -3.8256 -0.0000 3.0000 0.0000 -0.0000 5.7614 -28.7363 2.7772 -0.0000 -45.2736 -0.0000 -0.0000 -8.0000 -0.0000 -3.0000 0.0000 -0.0000 -5.7614 28.7363 2.7772 -0.0000 -45.2736 -0.0000 -0.0000 -8.0000 -0.0000 3.9521 -43.7416 -3.2863 -0.0000 86.1250 0.0000 -3.9221 -42.1667 -5.9758 -0.0000 7.9998 -0.0000 0.4643 -42.2571 -3.8281 -0.0000 43.7730 0.0000 -0.3959 -14.2982 -2.9579 -0.0000 1.1808 -0.0000
-1.9640 85.6800 36.0701 -3.6021 7.8483 5.5617 0.0430 1.9273 -1.2785 0.0645 1.6052 -2.3009 -0.0000 -3.1542 -0.0000 -0.0000 -3.8551 -0.0000 3.0000 0.0000 -0.0000 5.6174 -25.5961 2.4332 -0.0000 -45.3540 -0.0000 -0.0000 -8.0000 -0.0000 -3.0000 0.0000 -0.0000 -5.6174 25.5961 2.4332 -0.0000 -45.3540 -0.0000 -0.0000 -8.0000 -0.0000 3.2357 -54.3431 -3.6105 -0.0000 87.0046 0.0000 -3.4311 -36.2460 -4.8159 -0.0000 7.9140 -0.0000 1.8609 -38.5685 -3.1273 0.0000 48.8139 0.0000 -0.6310 -18.3844 -2.7546 -0.0000 0.0000 -0.0000
-2.0000 85.5000 45.0000 -3.6137 7.9329 4.5903 0.0352 1.9549 -1.0319 0.0528 1.6285 -1.8570 -0.0000 -3.1773 -0.0000 -0.0000 -3.8834 -0.0000 3.0000 0.0000 -0.0000 5.4354 -20.8515 1.9398 -0.0000 -45.4297 -0.0000 -0.0000 -8.0000 -0.0000 -3.0000 0.0000 -0.0000 -5.4354 20.8515 1.9398 -0.0000 -45.4297 -0.0000 -0.0000 -8.0000 -0.0000 2.7467 -62.0927 -3.5603 -0.0000 82.0183 0.0000 -2.9017 -27.0053 -3.4318 -0.0000 7.6877 -0.0000 2.9885 -32.9339 -2.2727 0.0000 50.9823 0.0000 -1.0480 -26.2447 -2.5260 -0.0000 0.0000 -0.0000
-1.8981 85.8704 53.8525 -3.3239 8.0509 3.3300 0.0250 1.9810 -0.7227 0.0375 1.6505 -1.3005 -0.0000 -3.1997 -0.0000 -0.0000 -3.9107 -0.0000 3.0000 0.0000 -0.0000 5.2693 -14.9026 1.3587 -0.0000 -45.5010 -0.0000 -0.0000 -8.0000 -0.0000 -3.0000 0.0000 -0.0000 -5.2693 14.9026 1.3587 -0.0000 -45.5010 -0.0000 -0.0000 -8.0000 -0.0000 3.0152 -65.2690 -2.6192 -0.0000 70.8665 0.0000 -2.4709 -15.7948 -2.0368 -0.0000 7.3433 -0.0000 3.5013 -24.9220 -1.4154 -0.0000 48.0780 -0.0000 -1.1944 -31.3888 -2.0666 -0.0000 0.0000 -0.0000
-1.6296 86.7963 62.6385 -2.7965 8.1754 1.8704 0.0130 2.0056 -0.3718 0.0195 1.6712 -0.6690 -0.0000 -3.2212 -0.0000 -0.0000 -3.9370 -0.0000 3.0000 0.0000 -0.0000 5.1561 -8.1502 0.7329 -0.0000 -45.5683 -0.0000 -0.0000 -8.0000 -0.0000 -3.0000 0.0000 -0.0000 -5.1561 8.1502 0.7329 -0.0000 -45.5683 -0.0000 -0.0000 -8.0000 -0.0000 3.9184 -63.0425 -0.9487 -0.0000 53.4715 0.0000 -2.1798 -3.2763 -0.6959 -0.0000 6.9028 -0.0000 3.2684 -15.8815 -0.6464 0.0000 42.0423 0.0000 -0.8862 -31.6497 -1.2454 -0.0000 -2.4933 -0.0000
-1.2500 88.0000 71.3725 -2.0842 8.2827 0.3004 -0.0000 2.0288 -0.0000 -0.0000 1.6907 -0.0000 -0.0000 -3.2420 -0.0000 -0.0000 -3.9625 -0.0000 3.0000 0.0000 -0.0000 5.1163 -0.9960 0.0892 -0.0000 -45.6319 -0.0000 -0.0000 -8.0000 -0.0000 -3.0000 0.0000 -0.0000 -5.1163 0.9960 0.0892 -0.0000 -45.6319 -0.0000 -0.0000 -8.0000 -0.0000 4.4948 -54.0119 0.5021 -0.0000 26.8824 -0.0000 -2.0805 12.1850 0.6765 -0.0000 6.3886 -0.0000 2.3738 -11.1672 0.0449 0.0000 42.5641 0.0000 -0.3148 -22.1589 -0.2108 -0.0000 -15.7728 -0.0000
-0.8148 89.2037 80.0688 -1.2421 8.3551 -1.2903 -0.0133 2.0508 0.3718 -0.0200 1.7090 0.6690 -0.0000 -3.2623 -0.0000 -0.0000 -3.9873 -0.0000 3.0000 0.0000 -0.0000 5.1564 6.1580 -0.5546 -0.0000 -45.6924 -0.0000 -0.0000 -8.0000 -0.0000 -3.0000 0.0000 -0.0000 -5.1564 -6.1580 -0.5546 -0.0000 -45.6924 -0.0000 -0.0000 -8.0000 -0.0000 4.5496 -48.4166 1.5582 0.0000 11.4674 -0.0000 -2.0747 20.5328 1.7558 -0.0000 5.8229 -0.0000 1.1143 -11.3795 0.6962 0.0000 48.4295 0.0000 -0.2682 -0.3812 0.7809 -0.0000 -40.5000 -0.0000
-0.3796 90.1296 88.7416 -0.3259 8.3838 -2.8107 -0.0261 2.0718 0.7227 -0.0392 1.7262 1.3006 -0.0000 -3.2821 -0.0000 -0.0000 -4.0115 -0.0000 3.0000 0.0000 -0.0000 5.2707 12.9100 -1.1807 -0.0000 -45.7499 -0.0000 -0.0000 -8.0000 -0.0000 -3.0000 0.0000 -0.0000 -5.2707 -12.9100 -1.1807 -0.0000 -45.7499 -0.0000 -0.0000 -8.0000 -0.0000 4.5941 -48.5709 2.6234 -0.0000 11.4674 0.0000 -1.9737 19.6710 2.4269 -0.0000 5.2280 -0.0000 -0.5298 -4.2666 1.2624 0.0000 42.3461 0.0000 0.0272 -8.3213 1.8619 -0.0000 -31.2090 -0.0000
